<svg width="50" height="50" viewBox="0 0 50 50" fill="none" xmlns="http://www.w3.org/2000/svg">
<path d="M30.373 4.84539C30.1103 4.71735 29.8169 4.66558 29.5262 4.69597C29.2355 4.72635 28.9591 4.83766 28.7285 5.01726L15.0879 15.6247H6.25C5.4212 15.6247 4.62634 15.9539 4.04029 16.54C3.45424 17.126 3.125 17.9209 3.125 18.7497V31.2497C3.125 32.0785 3.45424 32.8733 4.04029 33.4594C4.62634 34.0454 5.4212 34.3747 6.25 34.3747H15.0879L28.7285 44.9821C28.9593 45.1615 29.2359 45.2726 29.5267 45.3027C29.8175 45.3328 30.111 45.2807 30.3736 45.1523C30.6363 45.0239 30.8577 44.8244 31.0126 44.5765C31.1675 44.3285 31.2498 44.0421 31.25 43.7497V6.24968C31.25 5.95697 31.1679 5.67012 31.0128 5.42184C30.8578 5.17355 30.6361 4.97382 30.373 4.84539ZM6.25 18.7497H14.0625V31.2497H6.25V18.7497ZM28.125 40.5544L17.1875 32.0485V17.9509L28.125 9.445V40.5544ZM38.6719 19.8356C39.9286 21.2623 40.622 23.0984 40.622 24.9997C40.622 26.901 39.9286 28.737 38.6719 30.1637C38.3958 30.4671 38.0116 30.6497 37.6021 30.6722C37.1925 30.6947 36.7906 30.5553 36.483 30.2841C36.1753 30.0129 35.9867 29.6315 35.9577 29.2224C35.9287 28.8133 36.0618 28.4092 36.3281 28.0973C37.0818 27.2414 37.4975 26.1401 37.4975 24.9997C37.4975 23.8593 37.0818 22.758 36.3281 21.902C36.0618 21.5902 35.9287 21.1861 35.9577 20.7769C35.9867 20.3678 36.1753 19.9865 36.483 19.7153C36.7906 19.444 37.1925 19.3046 37.6021 19.3272C38.0116 19.3497 38.3958 19.5323 38.6719 19.8356ZM48.4375 24.9997C48.4397 28.8438 47.023 32.5535 44.459 35.4177C44.1806 35.7188 43.7951 35.8985 43.3854 35.9179C42.9758 35.9373 42.5749 35.7949 42.2694 35.5214C41.9638 35.2478 41.778 34.8652 41.7521 34.4559C41.7262 34.0466 41.8622 33.6435 42.1309 33.3337C44.1805 31.0419 45.3136 28.0752 45.3136 25.0007C45.3136 21.9261 44.1805 18.9594 42.1309 16.6677C41.9902 16.5154 41.8812 16.3367 41.8102 16.142C41.7393 15.9472 41.7078 15.7403 41.7176 15.5332C41.7274 15.3262 41.7783 15.1232 41.8674 14.936C41.9564 14.7488 42.0818 14.5812 42.2362 14.4429C42.3907 14.3047 42.5711 14.1986 42.7669 14.1307C42.9628 14.0629 43.1702 14.0347 43.3771 14.0478C43.5839 14.0609 43.7861 14.115 43.9719 14.207C44.1576 14.299 44.3232 14.427 44.459 14.5837C47.0237 17.4466 48.4405 21.156 48.4375 24.9997Z" fill="white" fill-opacity="0.5"/>
</svg>
