<svg width="80" height="80" viewBox="0 0 80 80" fill="none" xmlns="http://www.w3.org/2000/svg">
<path d="M44.375 52.125C44.375 52.7052 44.1445 53.2616 43.7343 53.6718C43.3241 54.082 42.7677 54.3125 42.1875 54.3125C41.0272 54.3125 39.9144 53.8516 39.0939 53.0311C38.2734 52.2106 37.8125 51.0978 37.8125 49.9375V39C37.2323 39 36.6759 38.7695 36.2657 38.3593C35.8555 37.9491 35.625 37.3927 35.625 36.8125C35.625 36.2323 35.8555 35.6759 36.2657 35.2657C36.6759 34.8555 37.2323 34.625 37.8125 34.625C38.9728 34.625 40.0856 35.0859 40.9061 35.9064C41.7266 36.7269 42.1875 37.8397 42.1875 39V49.9375C42.7677 49.9375 43.3241 50.168 43.7343 50.5782C44.1445 50.9884 44.375 51.5448 44.375 52.125ZM35.625 26.9688C35.625 26.3198 35.8174 25.6854 36.178 25.1458C36.5385 24.6062 37.051 24.1856 37.6506 23.9373C38.2501 23.6889 38.9099 23.6239 39.5464 23.7505C40.1829 23.8772 40.7676 24.1897 41.2264 24.6486C41.6853 25.1074 41.9978 25.6921 42.1245 26.3286C42.2511 26.9651 42.1861 27.6249 41.9377 28.2244C41.6894 28.824 41.2688 29.3365 40.7292 29.697C40.1896 30.0576 39.5552 30.25 38.9063 30.25C38.036 30.25 37.2014 29.9043 36.5861 29.2889C35.9707 28.6736 35.625 27.839 35.625 26.9688Z" fill="black"/>
<circle cx="40" cy="40" r="38.5" transform="rotate(-180 40 40)" stroke="black" stroke-width="3"/>
</svg>
